<svg width="38" height="31" viewBox="0 0 38 31" fill="none" xmlns="http://www.w3.org/2000/svg">
<path d="M28.6357 12.4243C28.5149 12.4246 28.3962 12.3929 28.2915 12.3326C28.1868 12.2722 28.1 12.1853 28.0397 12.0806L21.9354 1.50752C21.8456 1.3497 21.822 1.1628 21.8695 0.987591C21.9171 0.812387 22.0321 0.663109 22.1893 0.572334C22.3465 0.481559 22.5332 0.456655 22.7088 0.503059C22.8843 0.549462 23.0343 0.663405 23.1261 0.820022L29.2304 11.3931C29.2907 11.4975 29.3225 11.616 29.3225 11.7367C29.3226 11.8573 29.2909 11.9758 29.2306 12.0803C29.1704 12.1848 29.0837 12.2716 28.9793 12.332C28.8748 12.3924 28.7564 12.4242 28.6357 12.4243ZM8.48994 12.4243C8.36924 12.4244 8.25064 12.3927 8.1461 12.3324C8.04156 12.272 7.95477 12.1852 7.89448 12.0806C7.83418 11.9761 7.8025 11.8575 7.80264 11.7368C7.80277 11.616 7.83472 11.4975 7.89525 11.3931L13.9996 0.820022C14.0447 0.741837 14.1048 0.673308 14.1764 0.618349C14.2481 0.563389 14.3298 0.523077 14.417 0.499711C14.5042 0.476346 14.5952 0.470385 14.6847 0.482171C14.7742 0.493956 14.8605 0.523256 14.9387 0.568398C15.0169 0.61354 15.0854 0.673639 15.1404 0.745265C15.1953 0.816891 15.2356 0.898641 15.259 0.985847C15.2824 1.07305 15.2883 1.16401 15.2765 1.25352C15.2648 1.34303 15.2355 1.42934 15.1903 1.50752L9.086 12.0806C8.95813 12.3006 8.72713 12.4243 8.48994 12.4243ZM36.4375 14.4868H0.6875C0.505164 14.4868 0.330295 14.4144 0.201364 14.2855C0.072433 14.1565 0 13.9817 0 13.7993C0 13.617 0.072433 13.4421 0.201364 13.3132C0.330295 13.1843 0.505164 13.1118 0.6875 13.1118H36.4375C36.6198 13.1118 36.7947 13.1843 36.9236 13.3132C37.0526 13.4421 37.125 13.617 37.125 13.7993C37.125 13.9817 37.0526 14.1565 36.9236 14.2855C36.7947 14.4144 36.6198 14.4868 36.4375 14.4868Z" fill="black"/>
<path d="M0.6875 14.4868C0.505164 14.4868 0.330295 14.4144 0.201364 14.2855C0.072433 14.1565 0 13.9817 0 13.7993V9.67432C0 9.49198 0.072433 9.31711 0.201364 9.18818C0.330295 9.05925 0.505164 8.98682 0.6875 8.98682C0.869836 8.98682 1.0447 9.05925 1.17364 9.18818C1.30257 9.31711 1.375 9.49198 1.375 9.67432V13.7993C1.375 13.9817 1.30257 14.1565 1.17364 14.2855C1.0447 14.4144 0.869836 14.4868 0.6875 14.4868Z" fill="black"/>
<path d="M36.4375 10.3618H0.6875C0.505164 10.3618 0.330295 10.2894 0.201364 10.1605C0.072433 10.0315 0 9.85665 0 9.67432C0 9.49198 0.072433 9.31711 0.201364 9.18818C0.330295 9.05925 0.505164 8.98682 0.6875 8.98682H36.4375C36.6198 8.98682 36.7947 9.05925 36.9236 9.18818C37.0526 9.31711 37.125 9.49198 37.125 9.67432C37.125 9.85665 37.0526 10.0315 36.9236 10.1605C36.7947 10.2894 36.6198 10.3618 36.4375 10.3618Z" fill="black"/>
<path d="M36.612 13.9933C36.4297 13.9933 36.2548 13.9209 36.1259 13.792C35.997 13.663 35.9245 13.4882 35.9245 13.3058V9.18082C35.9245 8.99848 35.997 8.82361 36.1259 8.69468C36.2548 8.56575 36.4297 8.49332 36.612 8.49332C36.7944 8.49332 36.9692 8.56575 37.0982 8.69468C37.2271 8.82361 37.2995 8.99848 37.2995 9.18082V13.3058C37.2995 13.4882 37.2271 13.663 37.0982 13.792C36.9692 13.9209 36.7944 13.9933 36.612 13.9933ZM27.9165 27.0558C27.8211 27.0561 27.7266 27.0365 27.6392 26.9982C27.5518 26.9599 27.4733 26.9038 27.4088 26.8335C27.3443 26.7631 27.2952 26.6801 27.2646 26.5897C27.234 26.4993 27.2226 26.4036 27.2311 26.3085L28.076 16.6835C28.0832 16.5933 28.1082 16.5053 28.1497 16.4249C28.1912 16.3444 28.2483 16.273 28.3177 16.2148C28.387 16.1567 28.4673 16.1129 28.5538 16.0861C28.6402 16.0592 28.7312 16.0499 28.8213 16.0586C29.1994 16.0916 29.4792 16.425 29.4455 16.8031L28.6006 26.4281C28.5856 26.5993 28.5071 26.7587 28.3805 26.8749C28.2539 26.9911 28.0884 27.0556 27.9165 27.0558ZM23.3275 27.0558L23.2965 27.0551C23.1144 27.0471 22.9429 26.967 22.8197 26.8326C22.6966 26.6981 22.6319 26.5202 22.64 26.3381L23.0621 16.7131C23.0719 16.5315 23.1525 16.3611 23.2865 16.2383C23.4206 16.1156 23.5975 16.0503 23.7791 16.0565C23.9613 16.0645 24.1328 16.1446 24.2559 16.2791C24.3791 16.4135 24.4437 16.5914 24.4357 16.7736L24.0136 26.3986C24.0058 26.5754 23.9301 26.7424 23.8023 26.8648C23.6745 26.9872 23.5044 27.0556 23.3275 27.0558ZM18.737 27.0558C18.5547 27.0558 18.3798 26.9834 18.2509 26.8545C18.122 26.7255 18.0495 26.5507 18.0495 26.3683V16.7433C18.0495 16.561 18.122 16.3861 18.2509 16.2572C18.3798 16.1282 18.5547 16.0558 18.737 16.0558C18.9194 16.0558 19.0942 16.1282 19.2232 16.2572C19.3521 16.3861 19.4245 16.561 19.4245 16.7433V26.3683C19.4245 26.5507 19.3521 26.7255 19.2232 26.8545C19.0942 26.9834 18.9194 27.0558 18.737 27.0558ZM14.1473 27.0558C13.9703 27.0556 13.8002 26.9872 13.6724 26.8648C13.5446 26.7424 13.4689 26.5754 13.4611 26.3986L13.039 16.7736C13.031 16.5914 13.0957 16.4135 13.2188 16.2791C13.3419 16.1446 13.5134 16.0645 13.6956 16.0565C13.8774 16.0498 14.0546 16.1149 14.1888 16.2377C14.3229 16.3606 14.4034 16.5314 14.4126 16.7131L14.8348 26.3381C14.8428 26.5202 14.7781 26.6981 14.655 26.8326C14.5319 26.967 14.3604 27.0471 14.1782 27.0551L14.1473 27.0558ZM9.55752 27.0558C9.38568 27.0556 9.22015 26.9911 9.09354 26.8749C8.96693 26.7587 8.88841 26.5993 8.87346 26.4281L8.02921 16.8031C8.0194 16.7122 8.02783 16.6202 8.05401 16.5326C8.08019 16.4449 8.12359 16.3634 8.18167 16.2928C8.23976 16.2221 8.31135 16.1638 8.39227 16.1211C8.47319 16.0785 8.5618 16.0524 8.65292 16.0445C8.74403 16.0365 8.83582 16.0468 8.9229 16.0748C9.00999 16.1027 9.09062 16.1478 9.16007 16.2073C9.22952 16.2668 9.28641 16.3396 9.32738 16.4214C9.36836 16.5031 9.39261 16.5922 9.39871 16.6835L10.243 26.3085C10.2513 26.4035 10.2397 26.4992 10.209 26.5895C10.1783 26.6798 10.1292 26.7627 10.0647 26.833C10.0003 26.9033 9.92187 26.9594 9.83456 26.9978C9.74724 27.0361 9.65289 27.0559 9.55752 27.0558ZM5.10665 28.1022C4.93997 28.1019 4.77906 28.0411 4.65386 27.9311C4.52866 27.8211 4.44769 27.6693 4.42602 27.5041L2.5684 13.3952C2.54458 13.2145 2.59348 13.0318 2.70435 12.8871C2.81522 12.7425 2.97898 12.6478 3.15965 12.6238C3.2493 12.6111 3.34059 12.6164 3.42817 12.6394C3.51575 12.6624 3.59787 12.7026 3.6697 12.7577C3.74154 12.8128 3.80165 12.8818 3.84652 12.9604C3.8914 13.0391 3.92012 13.1259 3.93102 13.2158L5.78796 27.3246C5.80078 27.4217 5.79274 27.5203 5.76437 27.614C5.736 27.7076 5.68797 27.7942 5.62347 27.8678C5.55897 27.9414 5.4795 28.0004 5.39038 28.0408C5.30125 28.0812 5.20451 28.1022 5.10665 28.1022ZM32.3681 28.1022C32.2702 28.1022 32.1735 28.0814 32.0843 28.0411C31.9952 28.0007 31.9156 27.9418 31.8511 27.8683C31.7865 27.7947 31.7384 27.7082 31.71 27.6146C31.6815 27.521 31.6734 27.4223 31.6861 27.3253L33.5423 13.2164C33.5536 13.1267 33.5825 13.0401 33.6275 12.9616C33.6725 12.8832 33.7326 12.8144 33.8044 12.7593C33.8761 12.7043 33.9581 12.664 34.0455 12.6409C34.133 12.6177 34.2241 12.6122 34.3137 12.6245C34.4944 12.6485 34.6581 12.7432 34.769 12.8878C34.8799 13.0325 34.9288 13.2152 34.905 13.3959L33.0487 27.5048C33.0269 27.6699 32.9459 27.8215 32.8207 27.9314C32.6955 28.0413 32.5347 28.102 32.3681 28.1022ZM29.6408 30.4933H7.83327C7.65094 30.4933 7.47607 30.4209 7.34714 30.292C7.2182 30.163 7.14577 29.9882 7.14577 29.8058C7.14577 29.6235 7.2182 29.4486 7.34714 29.3197C7.47607 29.1907 7.65094 29.1183 7.83327 29.1183H29.6408C29.8231 29.1183 29.998 29.1907 30.1269 29.3197C30.2558 29.4486 30.3283 29.6235 30.3283 29.8058C30.3283 29.9882 30.2558 30.163 30.1269 30.292C29.998 30.4209 29.8231 30.4933 29.6408 30.4933Z" fill="black"/>
<path d="M7.65942 30.9868C6.82594 30.9849 6.02141 30.681 5.39482 30.1314C4.76823 29.5817 4.36204 28.8237 4.25148 27.9976C4.23675 27.9068 4.24041 27.8139 4.26222 27.7245C4.28404 27.6351 4.32358 27.551 4.37849 27.4772C4.43341 27.4034 4.50258 27.3413 4.58192 27.2947C4.66125 27.2481 4.74914 27.2179 4.84036 27.2059C4.93158 27.1939 5.02428 27.2003 5.11298 27.2248C5.20167 27.2493 5.28455 27.2913 5.35671 27.3484C5.42886 27.4055 5.48882 27.4765 5.53303 27.5572C5.57725 27.6379 5.60482 27.7266 5.6141 27.8181C5.6806 28.3138 5.92446 28.7685 6.30051 29.0982C6.67656 29.4279 7.15933 29.6101 7.65942 29.6111C7.84184 29.6111 8.0168 29.6836 8.1458 29.8126C8.27479 29.9416 8.34726 30.1166 8.34726 30.299C8.34726 30.4814 8.27479 30.6564 8.1458 30.7854C8.0168 30.9144 7.84184 30.9868 7.65942 30.9868ZM29.4662 30.9868C29.2839 30.9868 29.109 30.9144 28.9801 30.7855C28.8512 30.6565 28.7787 30.4817 28.7787 30.2993C28.7787 30.117 28.8512 29.9421 28.9801 29.8132C29.109 29.6843 29.2839 29.6118 29.4662 29.6118C29.9662 29.6105 30.4489 29.4282 30.8248 29.0986C31.2008 28.769 31.4448 28.3144 31.5115 27.8188C31.5227 27.7291 31.5516 27.6424 31.5966 27.5639C31.6415 27.4854 31.7016 27.4166 31.7734 27.3615C31.8452 27.3064 31.9272 27.2662 32.0146 27.243C32.1021 27.2199 32.1933 27.2144 32.2829 27.2269C32.4636 27.2508 32.6273 27.3456 32.7382 27.4902C32.8491 27.6348 32.898 27.8176 32.8742 27.9983C32.7635 28.8243 32.3572 29.5821 31.7306 30.1316C31.104 30.6811 30.2996 30.9849 29.4662 30.9868ZM15.798 1.16377C15.798 -0.387922 13.3918 -0.387922 13.3918 1.16377C13.3918 2.71545 15.798 2.71545 15.798 1.16377ZM23.7339 1.16377C23.7339 -0.387922 21.3276 -0.387922 21.3276 1.16377C21.3276 2.71545 23.7339 2.71545 23.7339 1.16377Z" fill="black"/>
</svg>
